<svg id="svg" version="1.1" width="400" height="352.3148148148148" xmlns="http://www.w3.org/2000/svg" xmlns:xlink="http://www.w3.org/1999/xlink" style="display: block;"><g id="svgg"><path id="path0" d="M350.347 0.353 C 336.286 3.451,329.499 18.538,335.448 33.474 C 337.573 38.807,343.177 47.248,347.192 51.161 C 347.781 51.735,349.188 53.168,350.319 54.343 L 352.373 56.481 353.595 56.481 L 354.818 56.481 357.765 53.414 C 359.385 51.727,361.765 49.109,363.053 47.596 C 364.340 46.083,365.897 44.260,366.512 43.545 C 369.615 39.941,374.394 31.447,375.596 27.401 C 380.177 11.976,366.089 -3.116,350.347 0.353 M357.703 14.006 C 365.558 17.873,362.901 29.508,354.162 29.513 C 346.164 29.517,342.990 19.102,349.629 14.640 C 352.052 13.011,355.182 12.766,357.703 14.006 " stroke="none" fill="#9f042f" fill-rule="evenodd"></path><path id="path1" d="M165.278 237.497 C 144.232 239.289,126.833 256.331,125.335 276.620 C 125.256 277.703,125.043 279.339,124.864 280.256 C 123.693 286.236,125.155 295.479,128.716 304.617 C 130.507 309.214,135.302 318.536,136.917 320.560 C 137.087 320.774,138.240 322.459,139.479 324.306 C 140.717 326.152,142.706 328.944,143.898 330.511 C 145.090 332.079,146.065 333.417,146.065 333.486 C 146.065 333.655,149.884 338.241,152.296 340.968 C 153.368 342.180,156.239 345.229,158.677 347.743 L 163.109 352.315 165.906 352.315 L 168.704 352.315 172.972 347.975 C 196.226 324.331,209.936 303.086,212.141 287.281 C 216.014 259.514,193.061 235.131,165.278 237.497 M171.800 264.842 C 181.385 267.498,186.832 278.426,183.034 287.384 C 177.321 300.862,159.016 301.743,152.315 288.862 C 145.591 275.938,157.750 260.948,171.800 264.842 " stroke="none" fill="#3c882b" fill-rule="evenodd"></path><path id="path2" d="M359.941 51.100 L 359.144 51.968 360.012 51.170 C 360.820 50.427,360.986 50.231,360.809 50.231 C 360.771 50.231,360.380 50.622,359.941 51.100 M350.694 54.977 C 351.386 55.677,352.004 56.250,352.068 56.250 C 352.131 56.250,351.617 55.677,350.926 54.977 C 350.234 54.277,349.617 53.704,349.553 53.704 C 349.489 53.704,350.003 54.277,350.694 54.977 M159.481 348.669 C 160.440 349.691,160.648 349.875,160.648 349.701 C 160.648 349.664,160.153 349.169,159.549 348.601 L 158.449 347.569 159.481 348.669 " stroke="none" fill="#ae6b7d" fill-rule="evenodd"></path><path id="path3" d="M271.875 52.786 C 231.007 53.777,196.892 54.623,196.065 54.666 L 194.560 54.745 206.892 63.193 C 213.675 67.838,219.144 71.664,219.045 71.694 C 218.870 71.748,108.254 95.155,105.845 95.648 C 105.177 95.785,104.630 95.961,104.631 96.039 C 104.632 96.117,111.089 99.045,118.981 102.546 C 126.873 106.047,133.305 108.979,133.274 109.061 C 133.243 109.143,107.541 131.889,76.157 159.608 C 44.774 187.326,18.855 210.238,18.559 210.523 C 18.006 211.055,-0.105 268.646,0.048 269.383 C 0.104 269.651,145.296 333.333,145.851 333.333 C 145.945 333.333,144.858 331.781,143.434 329.883 C 142.010 327.985,139.963 325.076,138.883 323.417 C 137.076 320.641,136.830 320.363,135.764 319.892 C 135.127 319.612,106.013 307.410,71.065 292.778 C 36.117 278.147,7.442 266.095,7.343 265.998 C 7.121 265.779,23.063 212.981,23.497 212.500 C 23.669 212.309,50.999 188.663,84.229 159.954 C 117.459 131.244,144.653 107.650,144.659 107.523 C 144.666 107.396,139.926 105.320,134.127 102.909 L 123.583 98.527 178.205 86.243 C 208.247 79.486,232.841 73.854,232.858 73.727 C 232.874 73.600,227.550 70.214,221.026 66.204 C 209.721 59.254,209.207 58.909,210.080 58.849 C 210.583 58.814,242.075 57.647,280.061 56.257 C 318.048 54.866,349.187 53.668,349.261 53.594 C 349.472 53.383,346.931 50.923,346.536 50.956 C 346.340 50.972,312.743 51.796,271.875 52.786 " stroke="none" fill="#008de8" fill-rule="evenodd"></path><path id="path4" d="M378.819 41.789 C 374.683 42.175,366.843 43.265,366.637 43.481 C 366.557 43.565,365.433 44.914,364.139 46.477 C 362.845 48.041,360.370 50.776,358.641 52.554 C 356.911 54.332,355.622 55.787,355.776 55.787 C 356.913 55.787,375.415 52.443,381.366 51.163 C 395.120 48.202,400.145 46.271,399.954 44.020 C 399.868 42.997,399.118 42.506,396.842 41.982 C 394.596 41.466,383.544 41.347,378.819 41.789 M384.678 45.334 C 387.235 46.764,377.845 49.150,369.560 49.176 C 363.847 49.194,362.835 48.759,365.463 47.416 C 369.131 45.540,382.464 44.096,384.678 45.334 M349.555 54.305 C 349.863 54.636,350.532 55.227,351.042 55.618 C 351.851 56.240,351.808 56.164,350.702 55.017 C 350.006 54.295,349.337 53.704,349.215 53.704 C 349.093 53.704,349.246 53.974,349.555 54.305 M226.273 322.247 C 216.830 322.756,206.610 323.897,196.109 325.616 L 192.333 326.233 189.706 329.494 C 185.396 334.843,180.292 340.536,174.825 346.090 C 171.347 349.625,169.843 351.297,170.196 351.240 C 236.880 340.377,263.911 332.958,260.701 326.397 C 259.014 322.950,244.866 321.244,226.273 322.247 M226.620 329.176 C 231.265 329.909,231.883 331.141,228.472 332.866 C 219.282 337.514,189.691 340.144,187.410 336.516 C 185.148 332.919,214.967 327.337,226.620 329.176 M156.019 345.273 C 156.019 346.144,159.358 349.728,161.808 351.485 C 162.829 352.218,162.407 351.696,159.610 348.765 C 156.174 345.166,156.019 345.014,156.019 345.273 " stroke="none" fill="#d1d4d4" fill-rule="evenodd"></path></g></svg>